<?xml version="1.0" standalone="no"?>
<!DOCTYPE svg PUBLIC "-//W3C//DTD SVG 20010904//EN"
 "http://www.w3.org/TR/2001/REC-SVG-20010904/DTD/svg10.dtd">
<svg version="1.0" xmlns="http://www.w3.org/2000/svg"
 width="512.000000pt" height="512.000000pt" viewBox="0 0 512.000000 512.000000"
 preserveAspectRatio="xMidYMid meet">
<metadata>
Created by potrace 1.16, written by Peter Selinger 2001-2019
</metadata>
<g transform="translate(0.000000,512.000000) scale(0.100000,-0.100000)"
fill="#000000" stroke="none">
<path d="M2520 5092 c0 -25 -5 -30 -42 -41 -127 -38 -242 -152 -289 -288 -23
-68 -24 -106 -4 -185 9 -33 15 -83 13 -111 l-3 -52 -90 -21 c-542 -128 -1013
-444 -1339 -899 -214 -299 -372 -705 -401 -1035 -10 -118 -2 -110 -112 -110
-108 0 -153 -15 -180 -61 -11 -19 -27 -29 -47 -32 l-31 -4 30 -1 c22 -2 35
-10 47 -32 9 -16 32 -39 50 -50 33 -20 44 -20 2438 -20 2394 0 2405 0 2438 20
18 11 41 34 50 50 11 20 26 30 47 33 l30 4 -30 1 c-22 2 -35 10 -48 31 -27 46
-72 61 -180 61 -110 0 -102 -8 -112 110 -9 95 -47 281 -79 385 -113 369 -298
679 -565 945 -310 310 -661 506 -1076 604 l-90 21 -3 52 c-2 28 4 78 13 111
20 79 19 117 -4 185 -47 136 -162 250 -288 288 -38 11 -43 16 -43 41 0 27 -2
28 -50 28 -48 0 -50 -1 -50 -28z m177 -252 c50 -30 63 -66 63 -170 0 -160 -46
-210 -190 -210 -144 0 -190 50 -190 210 0 155 35 190 190 190 77 0 101 -4 127
-20z"/>
<path d="M1740 1814 c-145 -22 -240 -49 -331 -95 -77 -38 -113 -71 -138 -124
-21 -44 -21 -52 -21 -820 l0 -775 895 0 895 0 0 30 c0 26 3 30 29 30 50 0 212
46 308 87 189 82 225 113 766 652 274 273 507 512 517 531 33 64 35 103 7 163
-64 141 -203 206 -317 148 -31 -16 -197 -174 -520 -496 -520 -517 -531 -525
-685 -565 -70 -18 -111 -20 -374 -20 -270 0 -299 2 -331 19 -58 30 -75 71 -75
178 0 99 10 123 69 167 26 20 44 21 324 26 287 5 299 6 342 28 68 36 127 99
150 160 11 29 20 61 20 71 0 35 -61 140 -98 169 -82 65 -87 66 -342 72 -156 4
-243 10 -258 18 -12 7 -50 38 -84 68 -123 110 -275 196 -423 238 -116 34 -252
51 -325 40z"/>
<path d="M455 1453 c-32 -8 -74 -42 -90 -74 -13 -25 -15 -111 -13 -638 l3
-610 34 -35 c19 -20 41 -36 48 -36 8 0 13 -12 13 -30 l0 -30 205 0 205 0 0
730 0 730 -192 -1 c-106 -1 -202 -4 -213 -6z"/>
</g>
</svg>
